<svg width="42" height="41" viewBox="0 0 42 41" fill="none" xmlns="http://www.w3.org/2000/svg">
<circle cx="21.3906" cy="20.5" r="20.5" fill="#191919"/>
<path d="M16.3402 17.5504L12.5259 21.3648C10.5188 23.3718 10.5357 26.6451 12.5644 28.6738C14.5931 30.7025 17.8649 30.7194 19.8727 28.7116L23.687 24.8973" fill="#191919"/>
<path d="M16.3402 17.5504L12.5259 21.3647C10.5188 23.3718 10.5357 26.6451 12.5644 28.6738C14.5931 30.7025 17.8649 30.7194 19.8727 28.7116L23.687 24.8973" stroke="#D9D9D9" stroke-width="2" stroke-miterlimit="10" stroke-linecap="round"/>
<path d="M18.7051 15.1875L22.5194 11.3732C24.5272 9.36537 27.799 9.3823 29.8277 11.411C31.8564 13.4397 31.8733 16.7115 29.8655 18.7193L26.0512 22.5336" fill="#191919"/>
<path d="M18.7051 15.1875L22.5194 11.3732C24.5272 9.36537 27.799 9.3823 29.8277 11.411C31.8564 13.4397 31.8733 16.7115 29.8655 18.7193L26.0512 22.5336" stroke="#D9D9D9" stroke-width="2" stroke-miterlimit="10" stroke-linecap="round"/>
<path d="M17.1855 24.0527L25.5663 15.672" stroke="#D9D9D9" stroke-width="2" stroke-miterlimit="10" stroke-linecap="round"/>
</svg>
