<svg width="90" height="90" viewBox="0 0 90 90" fill="none" xmlns="http://www.w3.org/2000/svg">
<circle cx="45" cy="45" r="44.5" stroke="black" stroke-opacity="0.3"/>
<path fill-rule="evenodd" clip-rule="evenodd" d="M58.8142 39.0136C60.6555 32.2259 56.5862 25.2513 49.7252 23.4354C42.8642 21.6195 35.8096 25.6499 33.9683 32.4376C32.887 36.4236 33.844 40.4741 36.2076 43.5065C35.4075 43.8323 34.6425 44.2369 33.9247 44.7131L30.4285 28.4666C30.4164 28.4105 30.3503 28.3848 30.3028 28.4176L21.2073 34.7085C21.0475 34.819 20.9701 35.0131 21.0106 35.2016L24.5894 51.8312C24.6274 52.0078 24.7624 52.1484 24.939 52.1951L28.4135 53.1148C27.2835 59.5307 31.2735 65.8493 37.7545 67.5646C44.6155 69.3805 51.6701 65.3501 53.5114 58.5624C54.2786 55.7342 54.0197 52.8736 52.9602 50.3672L54.2202 49.6486C54.2678 49.6214 54.3285 49.6481 54.34 49.7013L56.5513 59.977C56.5893 60.1536 56.7244 60.2942 56.9009 60.341L66.7286 62.9423C66.787 62.9578 66.8413 62.9068 66.8288 62.8484L62.9939 45.0282C62.95 44.8247 63.0439 44.6166 63.2262 44.5125L67.7569 41.9287C67.9393 41.8247 68.0331 41.6166 67.9893 41.4131L66.8287 36.0197C66.8175 35.9676 66.759 35.9406 66.7114 35.9657L58.371 40.3514C58.5414 39.9187 58.6897 39.4725 58.8142 39.0136Z" fill="#DF0078"/>
</svg>
