<svg width="90" height="90" viewBox="0 0 90 90" fill="none" xmlns="http://www.w3.org/2000/svg">
<circle cx="45" cy="45" r="44.5" stroke="black" stroke-opacity="0.3"/>
<path d="M24.0496 45.3276L24.2289 45.0458L35.0382 28.136C35.1961 27.8884 35.5675 27.914 35.687 28.183C37.4929 32.23 39.0511 37.2633 38.3211 40.3968C38.0095 41.6861 37.1556 43.4321 36.1951 45.0458C36.0713 45.2806 35.9347 45.5112 35.7895 45.7331C35.7212 45.8356 35.6059 45.8954 35.4821 45.8954H24.3655C24.0666 45.8954 23.8916 45.5709 24.0496 45.3276Z" fill="#2081E2"/>
<path d="M72.2288 48.4694V51.1461C72.2288 51.2998 72.1349 51.4364 71.9983 51.4961C71.1616 51.8547 68.297 53.1696 67.106 54.826C64.0664 59.0567 61.744 65.106 56.5528 65.106H34.8958C27.2201 65.106 21 58.8646 21 51.1631V50.9156C21 50.7106 21.1665 50.5442 21.3714 50.5442H33.4444C33.6834 50.5442 33.8584 50.7662 33.8371 51.0009C33.7517 51.7864 33.8969 52.589 34.2683 53.319C34.9854 54.7748 36.4711 55.6842 38.0762 55.6842H44.053V51.018H38.1446C37.8415 51.018 37.6622 50.6679 37.8372 50.4204C37.9012 50.3221 37.9739 50.2197 38.0506 50.1045C38.6099 49.3104 39.4082 48.0767 40.2023 46.6721C40.7445 45.7244 41.2695 44.7126 41.6922 43.6966C41.7776 43.513 41.8458 43.3251 41.9141 43.1416C42.0294 42.8171 42.149 42.514 42.2343 42.211C42.3198 41.9547 42.388 41.6858 42.4563 41.4339C42.657 40.5716 42.7423 39.658 42.7423 38.7103C42.7423 38.3389 42.7253 37.9504 42.6912 37.579C42.674 37.1735 42.6228 36.7678 42.5716 36.3623C42.5374 36.0037 42.4734 35.6493 42.4051 35.2779C42.3198 34.7358 42.2002 34.1979 42.0636 33.6557L42.0166 33.4508C41.9141 33.0794 41.8288 32.7251 41.7093 32.3537C41.372 31.1882 40.9835 30.0526 40.5737 28.9896C40.4243 28.567 40.2535 28.1614 40.0827 27.7559C39.8309 27.1454 39.5747 26.5904 39.3399 26.0653C39.2204 25.8262 39.1179 25.6085 39.0155 25.3865C38.9002 25.1346 38.7807 24.8827 38.6611 24.6437C38.5758 24.4602 38.4775 24.2894 38.4092 24.1186L37.6793 22.7696C37.5768 22.586 37.7476 22.3683 37.9482 22.4238L42.5161 23.6618H42.5289C42.5374 23.6618 42.5417 23.6661 42.546 23.6661L43.1479 23.8326L43.8097 24.0205L44.053 24.0887V21.3736C44.053 20.063 45.1032 19 46.401 19C47.0499 19 47.639 19.2647 48.0617 19.6958C48.4842 20.1271 48.7489 20.7162 48.7489 21.3736V25.4036L49.2357 25.5402C49.2741 25.5531 49.3124 25.5701 49.3466 25.5957C49.4662 25.6854 49.6369 25.8177 49.8546 25.98C50.0254 26.1165 50.209 26.283 50.4309 26.4538C50.8706 26.8081 51.3958 27.2649 51.9721 27.79C52.1258 27.9223 52.2752 28.059 52.4118 28.1956C53.1547 28.8872 53.9871 29.6983 54.7812 30.5948C55.0031 30.8467 55.2209 31.1028 55.4428 31.3717C55.6648 31.645 55.8997 31.9139 56.1045 32.1829C56.3735 32.5415 56.6638 32.9129 56.9157 33.3014C57.0352 33.485 57.1718 33.6728 57.2871 33.8564C57.6115 34.3473 57.8976 34.8554 58.1708 35.3634C58.2861 35.5981 58.4056 35.8543 58.508 36.1062C58.8111 36.7849 59.0502 37.4765 59.2039 38.1681C59.2508 38.3175 59.285 38.4798 59.3021 38.625V38.6591C59.3533 38.864 59.3704 39.0817 59.3874 39.3037C59.4558 40.0124 59.4216 40.721 59.2679 41.4339C59.2039 41.7371 59.1185 42.0231 59.0161 42.3262C58.9136 42.6165 58.8111 42.9196 58.6788 43.2056C58.4227 43.799 58.1195 44.3924 57.7609 44.9474C57.6457 45.1523 57.5091 45.3701 57.3724 45.575C57.223 45.7926 57.0694 45.9976 56.9327 46.1983C56.7449 46.4544 56.5443 46.7233 56.3394 46.9624C56.1558 47.2143 55.968 47.4662 55.763 47.6882C55.477 48.0254 55.2038 48.3456 54.9177 48.653C54.747 48.8536 54.5634 49.0585 54.3755 49.2421C54.1921 49.447 54.0042 49.6305 53.8334 49.8013C53.5474 50.0874 53.3083 50.3093 53.1076 50.4929L52.6381 50.9241C52.5698 50.9839 52.4801 51.018 52.3862 51.018H48.7489V55.6842H53.3254C54.3499 55.6842 55.3233 55.3212 56.1088 54.6552C56.3778 54.4205 57.5518 53.4044 58.9392 51.8718C58.9861 51.8206 59.046 51.7822 59.1143 51.7651L71.7549 48.1108C71.9898 48.0425 72.2288 48.2218 72.2288 48.4694Z" fill="#2081E2"/>
</svg>
