<svg width="100%" height="100%" viewBox="0 0 30 27" fill="none" xmlns="http://www.w3.org/2000/svg">
<path d="M25.0742 1L29.2268 5.15567L25.0742 9.30825" stroke="white" stroke-width="1.5" stroke-linecap="round" stroke-linejoin="round"/>
<path d="M29.225 5.15625H26.1614C23.2028 5.15625 20.3953 6.46434 18.4918 8.73191L10.8685 17.8145C9.27344 19.715 7.07992 21.0323 4.64267 21.4766C3.63383 21.6586 2.4584 21.782 1.11328 21.782" stroke="white" stroke-width="1.5" stroke-linecap="round" stroke-linejoin="round"/>
<path d="M24.9531 25.9332L29.1088 21.7776L24.9531 17.625" stroke="white" stroke-width="1.5" stroke-linecap="round" stroke-linejoin="round"/>
<path d="M12.0663 10.6848L10.7552 9.12372C9.16016 7.22329 6.96663 5.90594 4.52938 5.46168C3.52055 5.27966 2.34512 5.15625 1 5.15625" stroke="white" stroke-width="1.5" stroke-linecap="round" stroke-linejoin="round"/>
<path d="M29.1093 21.7798H26.0458C23.0871 21.7798 20.2797 20.4717 18.3761 18.2042L17.0742 16.6523" stroke="white" stroke-width="1.5" stroke-linecap="round" stroke-linejoin="round"/>
</svg>
