<svg width="33" height="32" viewBox="0 0 33 32" fill="none" xmlns="http://www.w3.org/2000/svg">
<path fill-rule="evenodd" clip-rule="evenodd" d="M26.5504 11.3875C27.8432 6.56066 24.986 1.60094 20.1687 0.309602C15.3514 -0.98172 10.3982 1.88436 9.10539 6.71117C8.34622 9.54568 9.01812 12.426 10.6777 14.5824C10.1159 14.8141 9.57879 15.1018 9.07479 15.4404L6.62002 3.88734C6.61154 3.84744 6.56512 3.82916 6.53175 3.85255L0.145542 8.32603C0.0333372 8.40461 -0.0209984 8.54267 0.00747452 8.6767L2.5202 20.5022C2.54686 20.6278 2.64172 20.7277 2.76569 20.761L5.2052 21.415C4.41182 25.9774 7.21329 30.4706 11.7638 31.6904C16.5811 32.9817 21.5344 30.1156 22.8272 25.2888C23.3658 23.2777 23.184 21.2434 22.4401 19.4611L23.3248 18.9501C23.3583 18.9308 23.4009 18.9498 23.4089 18.9876L24.9615 26.2948C24.9882 26.4204 25.0831 26.5204 25.207 26.5536L32.1073 28.4034C32.1483 28.4144 32.1865 28.3782 32.1776 28.3366L29.485 15.6645C29.4543 15.5198 29.5202 15.3718 29.6482 15.2978L32.8293 13.4604C32.9574 13.3865 33.0233 13.2385 32.9925 13.0938L32.1776 9.25845C32.1697 9.2214 32.1286 9.20224 32.0952 9.22004L26.2392 12.3388C26.3589 12.0311 26.463 11.7138 26.5504 11.3875Z" fill="#DF0078"/>
</svg>
