<svg width="62" height="62" viewBox="0 0 62 62" fill="none" xmlns="http://www.w3.org/2000/svg">
<g filter="url(#filter0_d_1847_8479)">
<path d="M31 51C42.0457 51 51 42.0457 51 31C51 19.9543 42.0457 11 31 11C19.9543 11 11 19.9543 11 31C11 42.0457 19.9543 51 31 51Z" fill="white" fill-opacity="0.2" shape-rendering="crispEdges"/>
<path d="M31 51C42.0457 51 51 42.0457 51 31C51 19.9543 42.0457 11 31 11C19.9543 11 11 19.9543 11 31C11 42.0457 19.9543 51 31 51Z" stroke="currentColor" stroke-width="0.5" stroke-linecap="round" stroke-linejoin="round" shape-rendering="crispEdges"/>
</g>
<path d="M27.6559 33.9009L18.4016 28.9429C18.0948 28.7802 18.1354 28.3254 18.4682 28.2219L39.1878 21.8736C39.4947 21.7738 39.7831 22.0622 39.6832 22.3691L33.335 43.0887C33.2278 43.4215 32.7767 43.4621 32.614 43.1552L27.6559 33.9009Z" stroke="currentColor" stroke-width="2" stroke-linecap="round" stroke-linejoin="round"/>
<path d="M39.4432 22.2285L27.6562 34.0155" stroke="currentColor" stroke-width="2" stroke-linecap="round" stroke-linejoin="round"/>
<defs>
<filter id="filter0_d_1847_8479" x="0.75" y="0.75" width="60.5" height="60.5" filterUnits="userSpaceOnUse" color-interpolation-filters="sRGB">
<feFlood flood-opacity="0" result="BackgroundImageFix"/>
<feColorMatrix in="SourceAlpha" type="matrix" values="0 0 0 0 0 0 0 0 0 0 0 0 0 0 0 0 0 0 127 0" result="hardAlpha"/>
<feOffset/>
<feGaussianBlur stdDeviation="5"/>
<feComposite in2="hardAlpha" operator="out"/>
<feColorMatrix type="matrix" values="0 0 0 0 1 0 0 0 0 1 0 0 0 0 1 0 0 0 0.3 0"/>
<feBlend mode="normal" in2="BackgroundImageFix" result="effect1_dropShadow_1847_8479"/>
<feBlend mode="normal" in="SourceGraphic" in2="effect1_dropShadow_1847_8479" result="shape"/>
</filter>
</defs>
</svg>
