<svg width="174" height="20" viewBox="0 0 174 20" fill="none" xmlns="http://www.w3.org/2000/svg">
<g clip-path="url(#clip0_1086_296)">
<path d="M111.684 19.9553V0L107.927 0V19.9553H111.684Z" fill="white"/>
<path d="M101.922 0H93.4125H89.656H81.1465V1.83549H89.656V19.9553H93.4125V1.83549H101.922V0Z" fill="white"/>
<path d="M27.8203 19.9553V0L24.0638 0V19.9553H27.8203Z" fill="white"/>
<path d="M109.84 10.1554V9.80273H109.773V10.1554H109.84Z" fill="white"/>
<path d="M75.8938 0H61.3221C59.8473 0 58.6504 1.19694 58.6504 2.67174V17.2835C58.6504 18.7583 59.8473 19.9553 61.3221 19.9553H75.8938V18.1198H62.4069V10.5454H73.6362V8.70988H62.4069V1.83549H75.8938V0Z" fill="white"/>
<path d="M173.999 0H159.428C157.953 0 156.756 1.19694 156.756 2.67174V17.2835C156.756 18.7583 157.953 19.9553 159.428 19.9553H173.999V18.1198H160.512V10.5454H171.742V8.70988H160.512V1.83549H173.999V0Z" fill="white"/>
<path d="M36.1562 2.67174V19.9553H39.9127V12.0603H51.1421V10.2248H39.9127V1.83549H53.3997V0H38.828C37.3532 0 36.1562 1.19694 36.1562 2.67174Z" fill="white"/>
<path d="M0 0V17.2835C0 18.7583 1.19694 19.9553 2.67174 19.9553H17.2434V18.1198H3.75647V0H0Z" fill="white"/>
<path d="M149.965 1.8246V0.0078125H143.198C140.002 0.0078125 137.194 3.75894 134.301 8.10854C131.18 3.441 128.469 0.0078125 125.412 0.0078125H118.645V1.8246H121.674V18.1222H118.645V19.939H125.412C128.701 19.939 131.648 15.4505 134.769 10.6975C137.494 6.54557 140.582 1.8433 143.179 1.8246V18.1196C142.14 18.1115 140.876 17.1925 139.321 15.3196L138.268 16.8879C140.093 18.9879 141.638 19.939 143.193 19.939H149.96V18.1222H146.93V1.8246H149.96H149.965ZM125.428 18.1196V1.82727C127.894 1.84597 130.804 6.09672 133.211 9.75968C130.633 13.6845 127.72 18.1035 125.428 18.1249V18.1196Z" fill="white"/>
</g>
<defs>
<clipPath id="clip0_1086_296">
<rect width="174" height="19.9553" fill="white"/>
</clipPath>
</defs>
</svg>
