<svg width="55" height="55" viewBox="0 0 55 55" fill="none" xmlns="http://www.w3.org/2000/svg">
<path d="M54.65 27.5C54.65 42.4937 42.4937 54.65 27.5 54.65C12.5063 54.65 0.35 42.4937 0.35 27.5C0.35 12.5063 12.5063 0.35 27.5 0.35C42.4968 0.35 54.65 12.5063 54.65 27.5Z" stroke="white" stroke-width="0.7"/>
<path d="M14.7788 27.3663L14.8834 27.2018L21.1923 17.3323C21.2845 17.1878 21.5013 17.2028 21.5711 17.3597C22.625 19.7218 23.5345 22.6595 23.1084 24.4884C22.9265 25.2409 22.4282 26.26 21.8676 27.2018C21.7953 27.3389 21.7156 27.4734 21.6309 27.603C21.591 27.6628 21.5237 27.6977 21.4514 27.6977H14.9632C14.7887 27.6977 14.6866 27.5083 14.7788 27.3663Z" fill="white"/>
<path d="M42.9 29.2V30.7623C42.9 30.852 42.8452 30.9317 42.7654 30.9666C42.2771 31.1759 40.6052 31.9433 39.91 32.9101C38.1359 35.3793 36.7805 38.91 33.7506 38.91H21.1104C16.6304 38.91 13 35.2672 13 30.7722V30.6277C13 30.5081 13.0972 30.411 13.2168 30.411H20.2632C20.4027 30.411 20.5049 30.5405 20.4925 30.6775C20.4426 31.136 20.5273 31.6044 20.7441 32.0305C21.1627 32.8802 22.0298 33.4109 22.9667 33.4109H26.455V30.6875H23.0065C22.8296 30.6875 22.725 30.4832 22.8272 30.3387C22.8645 30.2814 22.9069 30.2216 22.9517 30.1543C23.2781 29.6909 23.7441 28.9708 24.2075 28.151C24.524 27.5979 24.8304 27.0073 25.0771 26.4143C25.127 26.3072 25.1668 26.1975 25.2067 26.0904C25.2739 25.901 25.3437 25.7241 25.3935 25.5472C25.4434 25.3977 25.4832 25.2407 25.5231 25.0937C25.6402 24.5904 25.6901 24.0572 25.6901 23.504C25.6901 23.2873 25.6801 23.0605 25.6602 22.8437C25.6502 22.607 25.6203 22.3703 25.5904 22.1336C25.5704 21.9243 25.5331 21.7175 25.4932 21.5007C25.4434 21.1843 25.3736 20.8704 25.2939 20.5539L25.2665 20.4343C25.2067 20.2175 25.1568 20.0107 25.0871 19.794C24.8902 19.1137 24.6635 18.4509 24.4243 17.8305C24.3371 17.5838 24.2374 17.3471 24.1377 17.1104C23.9908 16.7541 23.8412 16.4302 23.7042 16.1237C23.6345 15.9842 23.5746 15.8571 23.5148 15.7275C23.4476 15.5805 23.3778 15.4335 23.308 15.294C23.2582 15.1869 23.2009 15.0872 23.161 14.9875L22.7349 14.2001C22.6751 14.093 22.7748 13.9659 22.8919 13.9983L25.558 14.7209H25.5655C25.5704 14.7209 25.573 14.7234 25.5754 14.7234L25.9268 14.8206L26.313 14.9302L26.455 14.97V13.3854C26.455 12.6204 27.068 12 27.8254 12C28.2042 12 28.548 12.1545 28.7947 12.4061C29.0413 12.6578 29.1958 13.0017 29.1958 13.3854V15.7375L29.4799 15.8172C29.5023 15.8247 29.5247 15.8347 29.5447 15.8496C29.6145 15.902 29.7141 15.9792 29.8412 16.0739C29.9408 16.1536 30.048 16.2508 30.1775 16.3505C30.4342 16.5572 30.7407 16.8239 31.0771 17.1304C31.1667 17.2076 31.2539 17.2873 31.3337 17.3671C31.7673 17.7707 32.2531 18.2441 32.7166 18.7674C32.8461 18.9144 32.9732 19.0639 33.1028 19.2208C33.2323 19.3803 33.3694 19.5373 33.489 19.6943C33.646 19.9036 33.8154 20.1203 33.9624 20.3471C34.0322 20.4542 34.1119 20.5639 34.1792 20.671C34.3685 20.9575 34.5355 21.2541 34.695 21.5506C34.7622 21.6876 34.832 21.8371 34.8918 21.9841C35.0687 22.3803 35.2082 22.7839 35.2979 23.1876C35.3253 23.2748 35.3453 23.3695 35.3552 23.4542V23.4742C35.3851 23.5937 35.3951 23.7208 35.4051 23.8504C35.4449 24.264 35.425 24.6776 35.3353 25.0937C35.2979 25.2706 35.2481 25.4376 35.1883 25.6145C35.1285 25.7839 35.0687 25.9608 34.9915 26.1278C34.842 26.4741 34.665 26.8204 34.4557 27.1444C34.3885 27.264 34.3087 27.391 34.229 27.5107C34.1418 27.6377 34.0521 27.7573 33.9724 27.8744C33.8627 28.0239 33.7456 28.1809 33.626 28.3204C33.5189 28.4674 33.4093 28.6145 33.2897 28.744C33.1227 28.9408 32.9632 29.1277 32.7963 29.3071C32.6966 29.4242 32.5895 29.5438 32.4798 29.651C32.3727 29.7706 32.2631 29.8777 32.1634 29.9774C31.9965 30.1443 31.8569 30.2739 31.7398 30.381L31.4658 30.6327C31.4259 30.6676 31.3736 30.6875 31.3187 30.6875H29.1958V33.4109H31.8669C32.4649 33.4109 33.033 33.1991 33.4915 32.8104C33.6484 32.6734 34.3337 32.0804 35.1434 31.1859C35.1708 31.1559 35.2058 31.1335 35.2456 31.1236L42.6234 28.9907C42.7605 28.9508 42.9 29.0555 42.9 29.2Z" fill="white"/>
</svg>
