<svg width="60" height="60" viewBox="0 0 60 60" fill="none" xmlns="http://www.w3.org/2000/svg">
<g filter="url(#filter0_d_1003_9870)">
<path d="M30 50C41.0457 50 50 41.0457 50 30C50 18.9543 41.0457 10 30 10C18.9543 10 10 18.9543 10 30C10 41.0457 18.9543 50 30 50Z" fill="white"/>
</g>
<path d="M26.3415 36C26.868 37.9172 26.4062 42.5184 24 44.2439" stroke="black" stroke-width="2" stroke-linecap="round" stroke-linejoin="round"/>
<path d="M34.1463 36C33.7514 37.9172 34.0978 42.5184 35.9024 44.2439" stroke="black" stroke-width="2" stroke-linecap="round" stroke-linejoin="round"/>
<path d="M30.0156 29.0157C33.6098 29.0157 36.5235 26.102 36.5235 22.5078C36.5235 18.9137 33.6098 16 30.0156 16C26.4215 16 23.5078 18.9137 23.5078 22.5078C23.5078 26.102 26.4215 29.0157 30.0156 29.0157Z" stroke="black" stroke-width="2" stroke-linecap="round" stroke-linejoin="round"/>
<path d="M23.5078 35.5235C27.102 35.5235 30.0157 32.6098 30.0157 29.0156C30.0157 25.4215 27.102 22.5078 23.5078 22.5078C19.9137 22.5078 17 25.4215 17 29.0156C17 32.6098 19.9137 35.5235 23.5078 35.5235Z" stroke="black" stroke-width="2" stroke-linecap="round" stroke-linejoin="round"/>
<path d="M36.5235 35.5235C40.1176 35.5235 43.0313 32.6098 43.0313 29.0156C43.0313 25.4215 40.1176 22.5078 36.5235 22.5078C32.9293 22.5078 30.0156 25.4215 30.0156 29.0156C30.0156 32.6098 32.9293 35.5235 36.5235 35.5235Z" stroke="black" stroke-width="2" stroke-linecap="round" stroke-linejoin="round"/>
<defs>
<filter id="filter0_d_1003_9870" x="0" y="0" width="60" height="60" filterUnits="userSpaceOnUse" color-interpolation-filters="sRGB">
<feFlood flood-opacity="0" result="BackgroundImageFix"/>
<feColorMatrix in="SourceAlpha" type="matrix" values="0 0 0 0 0 0 0 0 0 0 0 0 0 0 0 0 0 0 127 0" result="hardAlpha"/>
<feOffset/>
<feGaussianBlur stdDeviation="5"/>
<feComposite in2="hardAlpha" operator="out"/>
<feColorMatrix type="matrix" values="0 0 0 0 1 0 0 0 0 1 0 0 0 0 1 0 0 0 0.3 0"/>
<feBlend mode="normal" in2="BackgroundImageFix" result="effect1_dropShadow_1003_9870"/>
<feBlend mode="normal" in="SourceGraphic" in2="effect1_dropShadow_1003_9870" result="shape"/>
</filter>
</defs>
</svg>
