<svg width="46" height="46" viewBox="0 0 46 46" fill="none" xmlns="http://www.w3.org/2000/svg">
<circle cx="23" cy="23" r="22.75" stroke="white" stroke-opacity="0.4" stroke-width="0.5"/>
<path d="M22.7893 17.4126C25.9091 17.4126 29.0255 17.4057 32.1454 17.4126C33.3127 17.4126 34.1874 17.9325 34.7039 19C34.8623 19.3272 34.945 19.6819 34.945 20.0469C34.945 23.4422 34.9553 26.8376 34.945 30.2329C34.9415 31.5965 33.843 32.726 32.4863 32.8293C32.2005 32.85 31.9181 32.8569 31.6323 32.8569C25.6302 32.8569 19.6281 32.8569 13.626 32.8569C12.9752 32.8569 12.3553 32.7432 11.8181 32.3507C11.0709 31.8031 10.6852 31.0593 10.6818 30.1365C10.6749 27.4953 10.6818 24.8541 10.6818 22.2163C10.6818 20.0882 10.6783 17.9567 10.6818 15.8285C10.6887 14.5441 11.5805 13.4628 12.8374 13.2114C13.0819 13.1632 13.3367 13.1426 13.5847 13.1426C19.7555 13.1426 25.9263 13.1426 32.0937 13.1426C32.2177 13.1426 32.3451 13.1495 32.4691 13.1736C32.7273 13.2252 32.8926 13.4353 32.8961 13.6901C32.8961 13.9346 32.748 14.1378 32.5035 14.2135C32.3554 14.2583 32.2039 14.248 32.0558 14.248C25.9022 14.248 19.7521 14.248 13.5985 14.248C13.3987 14.248 13.1956 14.2342 12.9958 14.2789C12.2486 14.4477 11.6976 15.1915 11.7665 15.9318C11.8422 16.7686 12.4862 17.3988 13.3058 17.4022C16.4669 17.4091 19.6247 17.4022 22.7858 17.4022L22.7893 17.4126ZM11.763 18.0221C11.763 18.1151 11.763 18.1839 11.763 18.2494C11.763 22.1957 11.763 26.1454 11.763 30.0917C11.763 31.0387 12.4862 31.7584 13.4263 31.7584C19.6866 31.7446 25.947 31.7515 32.2074 31.7515C32.3658 31.7515 32.5242 31.7515 32.6791 31.7033C33.4126 31.4898 33.8603 30.8872 33.8603 30.0848C33.8603 27.361 33.8603 24.6371 33.8603 21.9133C33.8603 21.3107 33.8637 20.708 33.8603 20.102C33.8534 19.3788 33.3816 18.7659 32.6998 18.5696C32.4794 18.5076 32.2521 18.5214 32.0249 18.5214C25.916 18.5214 19.8072 18.5214 13.6949 18.5214C13.0475 18.5214 12.4242 18.4284 11.8732 18.06C11.8526 18.0462 11.8285 18.0427 11.763 18.0221Z" fill="white"/>
<path d="M30.1176 26.2351C29.4943 26.2351 29.0156 25.7427 29.0225 25.1125C29.0294 24.4961 29.5115 24.0312 30.1348 24.0347C30.765 24.0347 31.2333 24.5202 31.2264 25.1573C31.2195 25.7668 30.734 26.2386 30.1141 26.2386L30.1176 26.2351Z" fill="white"/>
</svg>
