<svg width="36" height="29" viewBox="0 0 36 29" fill="none" xmlns="http://www.w3.org/2000/svg">
<mask id="mask0_1184_728" style="mask-type:luminance" maskUnits="userSpaceOnUse" x="0" y="0" width="36" height="29">
<path d="M36.0002 0.447266H0.402344V28.0231H36.0002V0.447266Z" fill="white"/>
</mask>
<g mask="url(#mask0_1184_728)">
<path d="M30.5375 2.90351C28.2686 1.86245 25.8355 1.09544 23.2916 0.65614C23.2453 0.647661 23.199 0.668849 23.1752 0.711226C22.8623 1.26776 22.5157 1.99381 22.2729 2.56448C19.5368 2.15485 16.8147 2.15485 14.1347 2.56448C13.8919 1.98112 13.5328 1.26776 13.2184 0.711226C13.1946 0.670263 13.1483 0.649075 13.102 0.65614C10.5595 1.09403 8.12643 1.86104 5.85614 2.90351C5.83649 2.91198 5.81964 2.92612 5.80846 2.94447C1.19349 9.83913 -0.0707377 16.5643 0.549452 23.2061C0.552258 23.2386 0.570499 23.2697 0.595756 23.2895C3.64058 25.5255 6.59001 26.883 9.48467 27.7828C9.531 27.7969 9.58008 27.78 9.60956 27.7418C10.2943 26.8067 10.9047 25.8208 11.428 24.7839C11.4589 24.7232 11.4294 24.6512 11.3663 24.6271C10.3981 24.2599 9.47625 23.8121 8.58946 23.3036C8.51931 23.2626 8.5137 23.1623 8.57823 23.1143C8.76484 22.9744 8.9515 22.8289 9.12969 22.682C9.16193 22.6552 9.20685 22.6496 9.24476 22.6665C15.0706 25.3264 21.3777 25.3264 27.1348 22.6665C27.1727 22.6482 27.2176 22.6538 27.2513 22.6806C27.4295 22.8275 27.6161 22.9744 27.8041 23.1143C27.8687 23.1623 27.8645 23.2626 27.7943 23.3036C26.9075 23.822 25.9856 24.2599 25.0161 24.6257C24.953 24.6498 24.9249 24.7232 24.9558 24.7839C25.4903 25.8193 26.1007 26.8053 26.7728 27.7404C26.8009 27.78 26.8514 27.7969 26.8977 27.7828C29.8064 26.883 32.7558 25.5255 35.8006 23.2895C35.8273 23.2697 35.8442 23.24 35.847 23.2075C36.5892 15.5289 34.6037 8.85883 30.5837 2.94588C30.5739 2.92612 30.5571 2.91198 30.5375 2.90351ZM12.298 19.162C10.544 19.162 9.09881 17.5517 9.09881 15.5741C9.09881 13.5965 10.516 11.9862 12.298 11.9862C14.094 11.9862 15.5252 13.6106 15.4972 15.5741C15.4972 17.5517 14.08 19.162 12.298 19.162ZM24.1265 19.162C22.3726 19.162 20.9273 17.5517 20.9273 15.5741C20.9273 13.5965 22.3445 11.9862 24.1265 11.9862C25.9225 11.9862 27.3537 13.6106 27.3257 15.5741C27.3257 17.5517 25.9225 19.162 24.1265 19.162Z" fill="currentColor"/>
</g>
</svg>
