<svg width="33" height="32" viewBox="0 0 33 32" fill="none" xmlns="http://www.w3.org/2000/svg">
<path fill-rule="evenodd" clip-rule="evenodd" d="M25.8841 11.1081C27.1444 6.42867 24.359 1.62041 19.6626 0.368507C14.9662 -0.883382 10.1372 1.89518 8.87687 6.57459C8.13676 9.32254 8.7918 12.1149 10.4097 14.2054C9.86204 14.4301 9.33839 14.709 8.84704 15.0372L6.45387 3.83699C6.44561 3.79831 6.40035 3.78059 6.36782 3.80326L0.141889 8.14013C0.0325006 8.21632 -0.0204714 8.35016 0.00728693 8.4801L2.45695 19.9444C2.48295 20.0662 2.57542 20.1631 2.69628 20.1953L5.07457 20.8294C4.3011 25.2525 7.03226 29.6085 11.4686 30.791C16.165 32.0429 20.9939 29.2643 22.2543 24.5849C22.7794 22.6352 22.6022 20.6631 21.877 18.9352L22.7394 18.4398C22.772 18.4211 22.8136 18.4394 22.8214 18.4761L24.3351 25.5601C24.3611 25.6819 24.4536 25.7789 24.5744 25.8111L31.3015 27.6044C31.3415 27.6151 31.3787 27.5799 31.3701 27.5397L28.7451 15.2545C28.7151 15.1142 28.7793 14.9707 28.9041 14.899L32.0054 13.1178C32.1302 13.046 32.1945 12.9025 32.1645 12.7623L31.37 9.04408C31.3624 9.00817 31.3223 8.98958 31.2897 9.00684L25.5807 12.0303C25.6974 11.7321 25.7988 11.4244 25.8841 11.1081Z" fill="currentColor"/>
</svg>
