<svg width="36" height="35" viewBox="0 0 36 35" fill="none" xmlns="http://www.w3.org/2000/svg">
<path d="M35.167 17.2349C35.167 26.7529 27.4502 34.4698 17.9322 34.4698C8.41412 34.4698 0.697266 26.7529 0.697266 17.2349C0.697266 7.71685 8.41412 0 17.9322 0C27.4522 0 35.167 7.71685 35.167 17.2349Z" fill="currentColor"/>
<path d="M9.20041 17.814L9.27476 17.6971L13.7582 10.6833C13.8238 10.5806 13.9778 10.5912 14.0274 10.7028C14.7764 12.3814 15.4227 14.4691 15.1199 15.7688C14.9907 16.3036 14.6365 17.0278 14.2381 17.6971C14.1868 17.7946 14.1301 17.8902 14.0699 17.9822C14.0416 18.0247 13.9937 18.0495 13.9424 18.0495H9.33143C9.20747 18.0495 9.13488 17.915 9.20041 17.814Z" fill="black"/>
<path d="M29.1842 19.1169V20.2271C29.1842 20.2909 29.1453 20.3475 29.0886 20.3723C28.7416 20.521 27.5534 21.0664 27.0594 21.7535C25.7986 23.5083 24.8354 26.0174 22.6821 26.0174H13.6992C10.5155 26.0174 7.93555 23.4286 7.93555 20.2342V20.1315C7.93555 20.0465 8.00459 19.9775 8.08959 19.9775H13.0972C13.1964 19.9775 13.269 20.0695 13.2601 20.1669C13.2247 20.4927 13.2849 20.8256 13.439 21.1284C13.7364 21.7322 14.3526 22.1094 15.0184 22.1094H17.4975V20.174H15.0468C14.9211 20.174 14.8467 20.0288 14.9193 19.9261C14.9458 19.8854 14.976 19.8429 15.0078 19.7951C15.2398 19.4657 15.5709 18.954 15.9003 18.3714C16.1252 17.9783 16.3429 17.5586 16.5182 17.1372C16.5537 17.0611 16.582 16.9831 16.6103 16.907C16.6581 16.7724 16.7077 16.6467 16.7431 16.521C16.7786 16.4147 16.8069 16.3032 16.8352 16.1987C16.9184 15.841 16.9538 15.4621 16.9538 15.069C16.9538 14.915 16.9468 14.7538 16.9326 14.5998C16.9255 14.4315 16.9043 14.2633 16.883 14.0951C16.8688 13.9463 16.8423 13.7994 16.814 13.6453C16.7786 13.4204 16.729 13.1974 16.6723 12.9724L16.6528 12.8875C16.6103 12.7334 16.5749 12.5864 16.5253 12.4324C16.3854 11.949 16.2243 11.478 16.0543 11.0371C15.9923 10.8618 15.9215 10.6935 15.8507 10.5253C15.7462 10.2721 15.64 10.0419 15.5426 9.82411C15.493 9.72494 15.4505 9.63463 15.408 9.54256C15.3602 9.43808 15.3106 9.3336 15.261 9.23447C15.2256 9.15832 15.1849 9.08749 15.1566 9.01665L14.8538 8.4571C14.8113 8.38096 14.8821 8.29065 14.9653 8.31368L16.86 8.82717H16.8653C16.8688 8.82717 16.8706 8.82896 16.8724 8.82896L17.1221 8.89801L17.3965 8.97594L17.4975 9.00424V7.87808C17.4975 7.33446 17.9331 6.89355 18.4714 6.89355C18.7405 6.89355 18.9849 7.00334 19.1602 7.18217C19.3355 7.36103 19.4453 7.60539 19.4453 7.87808V9.54966L19.6471 9.60629C19.6631 9.61164 19.679 9.6187 19.6932 9.62932C19.7428 9.66651 19.8136 9.72139 19.9039 9.78871C19.9747 9.84534 20.0508 9.91442 20.1429 9.98525C20.3253 10.1322 20.5431 10.3217 20.7822 10.5395C20.8459 10.5944 20.9079 10.651 20.9645 10.7077C21.2727 10.9946 21.6179 11.331 21.9473 11.7028C22.0394 11.8073 22.1297 11.9136 22.2218 12.0251C22.3138 12.1384 22.4112 12.25 22.4962 12.3616C22.6078 12.5103 22.7282 12.6643 22.8327 12.8255C22.8822 12.9016 22.9389 12.9795 22.9867 13.0557C23.1213 13.2593 23.2399 13.47 23.3533 13.6808C23.4011 13.7781 23.4506 13.8844 23.4931 13.9888C23.6189 14.2704 23.718 14.5573 23.7818 14.8441C23.8012 14.9061 23.8154 14.9734 23.8225 15.0336V15.0478C23.8437 15.1327 23.8508 15.223 23.8579 15.3151C23.8862 15.6091 23.8721 15.903 23.8083 16.1987C23.7818 16.3245 23.7464 16.4431 23.7039 16.5688C23.6614 16.6892 23.6189 16.8149 23.564 16.9336C23.4577 17.1797 23.332 17.4258 23.1833 17.656C23.1354 17.741 23.0788 17.8313 23.0221 17.9163C22.9601 18.0066 22.8964 18.0916 22.8397 18.1749C22.7618 18.2811 22.6786 18.3926 22.5936 18.4918C22.5175 18.5963 22.4396 18.7008 22.3546 18.7928C22.2359 18.9327 22.1226 19.0655 22.0039 19.193C21.9331 19.2762 21.857 19.3612 21.7791 19.4374C21.703 19.5224 21.625 19.5985 21.5542 19.6693C21.4356 19.788 21.3364 19.88 21.2532 19.9562L21.0584 20.1351C21.0301 20.1598 20.9929 20.174 20.9539 20.174H19.4453V22.1094H21.3435C21.7684 22.1094 22.1722 21.9589 22.498 21.6826C22.6095 21.5853 23.0965 21.1638 23.672 20.5281C23.6914 20.5069 23.7163 20.491 23.7446 20.4839L28.9877 18.9681C29.0851 18.9398 29.1842 19.0142 29.1842 19.1169Z" fill="black"/>
</svg>
